<svg width="272" height="186" viewBox="0 0 272 186" fill="none" xmlns="http://www.w3.org/2000/svg">
<g filter="url(#filter0_f_26_252)">
<path fill-rule="evenodd" clip-rule="evenodd" d="M19.6904 52.8283C25.2212 50.8855 29.3758 45.3503 29.3758 39.4191C29.3758 32.6218 23.9191 27.8783 17.1879 28.8243C10.4567 29.7703 5 36.0476 5 42.8449C5 48.7031 9.05302 53.0357 14.4819 53.5156L16.7802 55.943C16.9499 56.1223 17.2597 56.0787 17.4294 55.8518L19.6904 52.8283ZM27.9354 39.5376C27.9354 45.578 23.0864 51.1562 17.1048 51.9968C11.1232 52.8375 6.27419 48.6223 6.27419 42.5819C6.27419 36.5416 11.1232 30.9634 17.1048 30.1227C23.0864 29.2821 27.9354 33.4973 27.9354 39.5376Z" fill="url(#paint0_linear_26_252)"/>
<path fill-rule="evenodd" clip-rule="evenodd" d="M22.065 35.5236C22.5555 35.4546 22.9545 35.817 22.9545 36.3314V37.5752C22.9545 37.747 22.8218 37.9048 22.658 37.9278L21.1754 38.1362V36.5814C21.1754 36.067 21.5744 35.5925 22.065 35.5236ZM18.2103 44.0833V42.9061L12.873 43.6562V38.6811C12.873 37.6523 13.671 36.7033 14.6521 36.5654L20.8865 35.6892C20.6984 35.9762 20.5824 36.3134 20.5824 36.6648V43.8165C20.5824 44.572 19.9402 45.2604 19.1971 45.2379C18.6139 45.2204 18.2103 44.703 18.2103 44.0833ZM17.6172 43.6114V44.2333C17.6172 45.2619 18.4152 45.9868 19.3963 45.8489L13.1695 46.724C12.0231 46.8852 11.0939 46.0413 11.0939 44.8391C11.0939 44.6673 11.2266 44.5095 11.3904 44.4865L17.6172 43.6114ZM14.0134 39.301C14.0134 39.061 14.206 38.8393 14.4437 38.8059L18.7576 38.1997C18.9592 38.1713 19.1226 38.3134 19.1226 38.5169C19.1226 38.7204 18.9592 38.9084 18.7576 38.9367L14.0134 39.6035V39.301ZM14.4437 40.6485C14.206 40.6819 14.0134 40.9035 14.0134 41.1435V41.446L18.7576 40.7792C18.9592 40.7509 19.1226 40.563 19.1226 40.3594C19.1226 40.1559 18.9592 40.0139 18.7576 40.0422L14.4437 40.6485Z" fill="#8BFF8E"/>
</g>
<g filter="url(#filter1_f_26_252)">
<path fill-rule="evenodd" clip-rule="evenodd" d="M257.552 93.3895C262.654 94.4956 266.487 91.2508 266.487 85.3196C266.487 78.5223 261.453 70.7707 255.244 68.006C249.034 65.2413 244 68.5103 244 75.3077C244 81.1659 247.739 87.7328 252.747 91.2055L254.868 94.8999C255.024 95.1727 255.31 95.3 255.466 95.1666L257.552 93.3895ZM265.158 84.6441C265.158 90.6845 260.685 93.5895 255.167 91.1327C249.649 88.6759 245.175 81.7875 245.175 75.7471C245.175 69.7068 249.649 66.8017 255.167 69.2586C260.685 71.7154 265.158 78.6038 265.158 84.6441Z" fill="url(#paint1_linear_26_252)"/>
<path fill-rule="evenodd" clip-rule="evenodd" d="M259.743 77.3938C260.195 77.5953 260.563 78.1776 260.563 78.6921V79.9358C260.563 80.1076 260.441 80.1923 260.29 80.125L258.922 79.5161V77.9613C258.922 77.4469 259.29 77.1924 259.743 77.3938ZM256.187 83.8285V82.6514L251.263 80.4592V75.4841C251.263 74.4552 251.999 73.9462 252.904 74.3491L258.656 76.9098C258.482 77.0932 258.375 77.3664 258.375 77.7177V84.8695C258.375 85.6249 257.783 85.9593 257.097 85.5272C256.559 85.1882 256.187 84.4483 256.187 83.8285ZM255.64 83.0297V83.6516C255.64 84.6803 256.376 85.8451 257.281 86.248L251.537 83.6905C250.479 83.2196 249.622 81.8635 249.622 80.6613C249.622 80.4895 249.744 80.4049 249.895 80.4722L255.64 83.0297ZM252.315 76.7326C252.315 76.4926 252.493 76.3772 252.712 76.4748L256.692 78.2467C256.878 78.3294 257.028 78.5615 257.028 78.7651C257.028 78.9686 256.878 79.0665 256.692 78.9837L252.315 77.0351V76.7326ZM252.712 78.3173C252.493 78.2197 252.315 78.3351 252.315 78.5751V78.8776L256.692 80.8262C256.878 80.909 257.028 80.8111 257.028 80.6076C257.028 80.4041 256.878 80.172 256.692 80.0892L252.712 78.3173Z" fill="#8BFF8E"/>
</g>
<g filter="url(#filter2_f_26_252)">
<path fill-rule="evenodd" clip-rule="evenodd" d="M232.329 37.1952C237.724 37.4752 241.777 33.6098 241.777 27.6786C241.777 20.8813 236.454 13.9447 229.888 12.1855C223.323 10.4262 218 14.5103 218 21.3077C218 27.1659 221.953 33.1274 227.249 35.7891L229.491 39.1403C229.656 39.3878 229.958 39.4687 230.124 39.31L232.329 37.1952ZM240.372 27.2182C240.372 33.2586 235.642 36.8879 229.807 35.3246C223.973 33.7612 219.243 27.5972 219.243 21.5568C219.243 15.5164 223.973 11.8871 229.807 13.4504C235.642 15.0138 240.372 21.1779 240.372 27.2182Z" fill="url(#paint2_linear_26_252)"/>
<path fill-rule="evenodd" clip-rule="evenodd" d="M234.645 20.8448C235.124 20.973 235.513 21.4957 235.513 22.0102V23.254C235.513 23.4258 235.384 23.5302 235.224 23.4874L233.778 23.0999V21.5452C233.778 21.0308 234.167 20.7166 234.645 20.8448ZM230.886 27.8553V26.6782L225.679 25.2832V20.3081C225.679 19.2792 226.458 18.651 227.415 18.9074L233.496 20.5368C233.312 20.7483 233.199 21.0388 233.199 21.3902V28.542C233.199 29.2974 232.573 29.7277 231.848 29.4066C231.279 29.1546 230.886 28.4751 230.886 27.8553ZM230.307 27.1451V27.767C230.307 28.7956 231.085 29.8412 232.042 30.0976L225.969 28.4702C224.85 28.1705 223.944 26.9533 223.944 25.7511C223.944 25.5793 224.074 25.4748 224.233 25.5176L230.307 27.1451ZM226.792 21.3863C226.792 21.1463 226.98 21.0021 227.212 21.0642L231.419 22.1917C231.616 22.2444 231.775 22.4521 231.775 22.6556C231.775 22.8591 231.616 22.9814 231.419 22.9287L226.792 21.6888V21.3863ZM227.212 22.9067C226.98 22.8446 226.792 22.9888 226.792 23.2288V23.5313L231.419 24.7712C231.616 24.8239 231.775 24.7016 231.775 24.4981C231.775 24.2946 231.616 24.0869 231.419 24.0342L227.212 22.9067Z" fill="#8BFF8E"/>
</g>
<g filter="url(#filter3_f_26_252)">
<path fill-rule="evenodd" clip-rule="evenodd" d="M120.093 178.631C128.035 176.973 134 169.933 134 161.5C134 151.835 126.165 144 116.5 144C106.835 144 99 151.835 99 161.5C99 169.83 104.82 176.8 112.615 178.567L115.915 182.478C116.158 182.767 116.603 182.767 116.847 182.478L120.093 178.631ZM131.932 161.381C131.932 169.969 124.969 176.932 116.381 176.932C107.792 176.932 100.83 169.969 100.83 161.381C100.83 152.792 107.792 145.83 116.381 145.83C124.969 145.83 131.932 152.792 131.932 161.381Z" fill="url(#paint3_linear_26_252)"/>
<path fill-rule="evenodd" clip-rule="evenodd" d="M123.503 154.5C124.207 154.5 124.78 155.095 124.78 155.827V157.595C124.78 157.839 124.589 158.037 124.354 158.037H122.225V155.827C122.225 155.095 122.798 154.5 123.503 154.5ZM117.968 165.901V164.227H110.304V157.153C110.304 155.69 111.45 154.5 112.859 154.5H121.811C121.541 154.871 121.374 155.327 121.374 155.827V165.995C121.374 167.07 120.452 167.92 119.385 167.74C118.548 167.598 117.968 166.782 117.968 165.901ZM117.116 165.111V165.995C117.116 167.458 118.262 168.648 119.671 168.648H110.73C109.084 168.648 107.75 167.263 107.75 165.553C107.75 165.309 107.94 165.111 108.176 165.111H117.116ZM111.942 158.262C111.942 157.921 112.218 157.644 112.56 157.644H118.754C119.043 157.644 119.278 157.879 119.278 158.168C119.278 158.458 119.043 158.692 118.754 158.692H111.942V158.262ZM112.56 160.264C112.218 160.264 111.942 160.541 111.942 160.882V161.312H118.754C119.043 161.312 119.278 161.077 119.278 160.788C119.278 160.499 119.043 160.264 118.754 160.264H112.56Z" fill="#8BFF8E"/>
</g>
<g filter="url(#filter4_f_26_252)">
<path fill-rule="evenodd" clip-rule="evenodd" d="M85.4886 141.004C90.0759 140.047 93.5217 135.98 93.5217 131.109C93.5217 125.526 88.9959 121 83.413 121C77.8302 121 73.3044 125.526 73.3044 131.109C73.3044 135.92 76.6659 139.947 81.1687 140.967L83.0749 143.226C83.2156 143.393 83.4726 143.393 83.6134 143.226L85.4886 141.004ZM92.3271 131.04C92.3271 136.001 88.3053 140.023 83.3441 140.023C78.383 140.023 74.3612 136.001 74.3612 131.04C74.3612 126.079 78.383 122.057 83.3441 122.057C88.3053 122.057 92.3271 126.079 92.3271 131.04Z" fill="url(#paint4_linear_26_252)"/>
<path fill-rule="evenodd" clip-rule="evenodd" d="M87.4581 127.065C87.865 127.065 88.1959 127.409 88.1959 127.831V128.853C88.1959 128.994 88.0858 129.108 87.95 129.108H86.7203V127.831C86.7203 127.409 87.0512 127.065 87.4581 127.065ZM84.261 133.651V132.684H79.8342V128.598C79.8342 127.753 80.4961 127.065 81.3098 127.065H86.4807C86.3247 127.279 86.2284 127.543 86.2284 127.831V133.705C86.2284 134.326 85.6959 134.817 85.0795 134.713C84.5958 134.631 84.261 134.16 84.261 133.651ZM83.7691 133.195V133.705C83.7691 134.55 84.431 135.238 85.2447 135.238H80.0802C79.1293 135.238 78.3586 134.437 78.3586 133.45C78.3586 133.309 78.4687 133.195 78.6046 133.195H83.7691ZM80.7801 129.238C80.7801 129.041 80.9399 128.881 81.137 128.881H84.715C84.8822 128.881 85.0177 129.017 85.0177 129.184C85.0177 129.351 84.8822 129.487 84.715 129.487H80.7801V129.238ZM81.137 130.395C80.9399 130.395 80.7801 130.555 80.7801 130.752V131H84.715C84.8822 131 85.0177 130.865 85.0177 130.697C85.0177 130.53 84.8822 130.395 84.715 130.395H81.137Z" fill="#8BFF8E"/>
</g>
<defs>
<filter id="filter0_f_26_252" x="0" y="22.1115" width="34.3758" height="41.7335" filterUnits="userSpaceOnUse" color-interpolation-filters="sRGB">
<feFlood flood-opacity="0" result="BackgroundImageFix"/>
<feBlend mode="normal" in="SourceGraphic" in2="BackgroundImageFix" result="shape"/>
<feGaussianBlur stdDeviation="2.5" result="effect1_foregroundBlur_26_252"/>
</filter>
<filter id="filter1_f_26_252" x="239" y="58" width="32.4872" height="48.3196" filterUnits="userSpaceOnUse" color-interpolation-filters="sRGB">
<feFlood flood-opacity="0" result="BackgroundImageFix"/>
<feBlend mode="normal" in="SourceGraphic" in2="BackgroundImageFix" result="shape"/>
<feGaussianBlur stdDeviation="2.5" result="effect1_foregroundBlur_26_252"/>
</filter>
<filter id="filter2_f_26_252" x="206.8" y="-2.2" width="46.1766" height="57.0786" filterUnits="userSpaceOnUse" color-interpolation-filters="sRGB">
<feFlood flood-opacity="0" result="BackgroundImageFix"/>
<feBlend mode="normal" in="SourceGraphic" in2="BackgroundImageFix" result="shape"/>
<feGaussianBlur stdDeviation="5.6" result="effect1_foregroundBlur_26_252"/>
</filter>
<filter id="filter3_f_26_252" x="96.5606" y="141.561" width="39.8788" height="45.1288" filterUnits="userSpaceOnUse" color-interpolation-filters="sRGB">
<feFlood flood-opacity="0" result="BackgroundImageFix"/>
<feBlend mode="normal" in="SourceGraphic" in2="BackgroundImageFix" result="shape"/>
<feGaussianBlur stdDeviation="1.2197" result="effect1_foregroundBlur_26_252"/>
</filter>
<filter id="filter4_f_26_252" x="71.8953" y="119.591" width="23.0356" height="26.0682" filterUnits="userSpaceOnUse" color-interpolation-filters="sRGB">
<feFlood flood-opacity="0" result="BackgroundImageFix"/>
<feBlend mode="normal" in="SourceGraphic" in2="BackgroundImageFix" result="shape"/>
<feGaussianBlur stdDeviation="0.704547" result="effect1_foregroundBlur_26_252"/>
</filter>
<linearGradient id="paint0_linear_26_252" x1="17.1879" y1="28.8243" x2="20.9385" y2="55.5109" gradientUnits="userSpaceOnUse">
<stop stop-color="white" stop-opacity="0.2"/>
<stop offset="1" stop-color="white"/>
</linearGradient>
<linearGradient id="paint1_linear_26_252" x1="255.244" y1="68.006" x2="245.132" y2="90.7176" gradientUnits="userSpaceOnUse">
<stop stop-color="white" stop-opacity="0.2"/>
<stop offset="1" stop-color="white"/>
</linearGradient>
<linearGradient id="paint2_linear_26_252" x1="229.888" y1="12.1855" x2="223.085" y2="37.5762" gradientUnits="userSpaceOnUse">
<stop stop-color="white" stop-opacity="0.2"/>
<stop offset="1" stop-color="white"/>
</linearGradient>
<linearGradient id="paint3_linear_26_252" x1="116.5" y1="144" x2="116.5" y2="182.695" gradientUnits="userSpaceOnUse">
<stop stop-color="white" stop-opacity="0.2"/>
<stop offset="1" stop-color="white"/>
</linearGradient>
<linearGradient id="paint4_linear_26_252" x1="83.413" y1="121" x2="83.413" y2="143.352" gradientUnits="userSpaceOnUse">
<stop stop-color="white" stop-opacity="0.2"/>
<stop offset="1" stop-color="white"/>
</linearGradient>
</defs>
</svg>
