<svg width="39" height="54" viewBox="0 0 39 54" fill="none" xmlns="http://www.w3.org/2000/svg">
<g filter="url(#filter0_f_1_202)">
<path fill-rule="evenodd" clip-rule="evenodd" d="M23.4227 43.5311C31.8646 43.8203 38.206 37.6884 38.206 28.449C38.206 17.8603 29.8772 7.19989 19.603 4.63825C9.32885 2.07662 1 8.58383 1 19.1725C1 28.2982 7.18634 37.4772 15.4727 41.4792L18.9807 46.6385C19.2397 47.0194 19.7127 47.1374 19.9717 46.8856L23.4227 43.5311ZM36.0075 27.7702C36.0075 37.1797 28.6062 42.9622 19.4762 40.6859C10.3462 38.4095 2.94486 28.9362 2.94486 19.5267C2.94486 10.1172 10.3462 4.33467 19.4762 6.61104C28.6062 8.8874 36.0075 18.3607 36.0075 27.7702Z" fill="url(#paint0_linear_1_202)"/>
<path fill-rule="evenodd" clip-rule="evenodd" d="M27.0471 17.9979C27.7959 18.1846 28.4049 18.9883 28.4049 19.7896V21.7271C28.4049 21.9948 28.2023 22.161 27.9523 22.0987L25.6894 21.5345V19.1125C25.6894 18.3112 26.2984 17.8112 27.0471 17.9979ZM21.1635 29.0211V27.1874L13.0169 25.1562V17.4061C13.0169 15.8034 14.2349 14.8035 15.7324 15.1769L25.2484 17.5494C24.9613 17.8838 24.7842 18.3395 24.7842 18.8869V30.0277C24.7842 31.2044 23.804 31.8919 22.6697 31.4114C21.7796 31.0344 21.1635 29.9865 21.1635 29.0211ZM20.2583 27.9305V28.8992C20.2583 30.5016 21.4763 32.1092 22.9738 32.4826L13.4695 30.1129C11.7197 29.6766 10.3014 27.8051 10.3014 25.9323C10.3014 25.6647 10.5039 25.4984 10.754 25.5608L20.2583 27.9305ZM14.7576 19.0553C14.7576 18.6815 15.0516 18.4517 15.4144 18.5422L21.999 20.1839C22.3066 20.2606 22.556 20.5798 22.556 20.8968C22.556 21.2139 22.3066 21.4087 21.999 21.332L14.7576 19.5266V19.0553ZM15.4144 21.4124C15.0516 21.3219 14.7576 21.5517 14.7576 21.9255V22.3968L21.999 24.2023C22.3066 24.279 22.556 24.0841 22.556 23.7671C22.556 23.45 22.3066 23.1308 21.999 23.0541L15.4144 21.4124Z" fill="#8BFF8E"/>
</g>
<defs>
<filter id="filter0_f_1_202" x="0.3" y="-0.7" width="38.606" height="54.7733" filterUnits="userSpaceOnUse" color-interpolation-filters="sRGB">
<feFlood flood-opacity="0" result="BackgroundImageFix"/>
<feBlend mode="normal" in="SourceGraphic" in2="BackgroundImageFix" result="shape"/>
<feGaussianBlur stdDeviation="0.35" result="effect1_foregroundBlur_1_202"/>
</filter>
<linearGradient id="paint0_linear_1_202" x1="19.603" y1="4.63825" x2="9.65193" y2="44.5499" gradientUnits="userSpaceOnUse">
<stop stop-color="white" stop-opacity="0.2"/>
<stop offset="1" stop-color="white"/>
</linearGradient>
</defs>
</svg>